<?xml version="1.0" standalone="no"?>
<!DOCTYPE svg PUBLIC "-//W3C//DTD SVG 20010904//EN"
 "http://www.w3.org/TR/2001/REC-SVG-20010904/DTD/svg10.dtd">
<svg version="1.0" xmlns="http://www.w3.org/2000/svg"
 width="200.000000pt" height="200.000000pt" viewBox="0 0 200.000000 200.000000"
 preserveAspectRatio="xMidYMid meet">
<metadata>
Created by potrace 1.11, written by Peter Selinger 2001-2013
</metadata>
<g transform="translate(0.000000,200.000000) scale(0.100000,-0.100000)"
fill="#000000" stroke="none">
<path d="M326 1984 c-77 -28 -139 -87 -169 -162 -16 -41 -17 -97 -15 -836 l3
-791 29 -52 c53 -96 137 -143 247 -139 129 6 193 63 157 141 -16 36 -61 46
-118 24 -39 -15 -50 -15 -83 -4 -43 15 -63 36 -75 80 -4 17 -8 363 -7 770 0
712 1 741 20 772 10 18 30 37 44 42 59 24 86 12 319 -132 125 -77 288 -177
362 -223 74 -46 177 -109 229 -141 145 -89 155 -95 233 -142 137 -83 185 -119
198 -150 15 -36 7 -87 -18 -117 -10 -12 -101 -72 -203 -134 -196 -120 -277
-170 -484 -297 -71 -44 -147 -90 -168 -102 -70 -42 -84 -100 -36 -142 42 -36
63 -28 268 100 46 29 98 61 115 71 17 10 99 59 181 110 83 51 205 126 272 167
144 88 187 126 215 190 41 93 19 224 -50 296 -29 30 -27 29 -317 207 -110 67
-224 138 -252 156 -29 19 -55 34 -58 34 -3 0 -38 21 -78 47 -136 88 -387 243
-392 243 -2 0 -23 13 -47 29 -99 66 -161 93 -223 96 -34 2 -77 -3 -99 -11z"/>
</g>
</svg>
